{"glyphs":{":":{"x_min":0,"x_max":600,"ha":600,"o":"m 191 0 l 219 146 l 334 146 l 306 0 z m 265 382 l 293 528 l 408 528 l 380 382 z"},"$":{"x_min":0,"x_max":600,"ha":600,"o":"m 271 -69 l 208 -69 l 223 10 q 18 17 17 185 l 104 203 q 104 84 236 77 l 283 316 q 259 321 221 334 q 182 346 158 363 q 134 379 120 403 q 105 427 105 462 q 105 501 121 538 q 136 574 168 601 q 201 627 247 642 q 293 656 349 657 l 361 721 l 424 721 l 412 657 q 502 654 544 618 q 587 583 592 500 l 504 484 q 503 536 478 562 q 453 588 399 592 l 358 384 q 446 362 480 343 q 514 324 532 296 q 551 269 551 227 q 551 168 520 119 q 489 69 429 41 q 368 13 286 10 z m 190 476 q 190 446 212 427 q 233 409 297 392 l 336 593 q 211 588 193 497 z m 465 211 q 465 235 453 251 q 442 268 420 280 q 399 292 343 306 l 298 76 q 379 81 422 117 q 465 154 465 211 z"},"?":{"x_min":0,"x_max":600,"ha":600,"o":"m 291 174 l 205 174 q 217 226 251 266 q 285 306 346 343 q 418 387 449 424 q 480 461 480 509 q 480 551 448 573 q 415 596 355 596 q 290 596 242 560 q 193 525 174 463 l 86 469 q 116 563 191 616 q 266 669 369 669 q 465 669 518 632 q 572 594 572 526 q 572 492 559 455 q 545 418 513 384 q 481 349 428 318 q 360 278 330 246 q 299 214 291 174 z m 167 0 l 187 98 l 282 98 l 263 0 z"},"<":{"x_min":0,"x_max":600,"ha":600,"o":"m 57 279 l 57 379 l 542 583 l 542 508 l 124 329 l 542 150 l 542 75 z"},"'":{"x_min":0,"x_max":600,"ha":600,"o":"m 363 413 l 294 413 l 334 725 l 444 725 z"},"=":{"x_min":0,"x_max":600,"ha":600,"o":"m 57 418 l 57 490 l 542 490 l 542 418 z m 57 168 l 57 240 l 542 240 l 542 168 z"},"a":{"x_min":0,"x_max":600,"ha":600,"o":"m 497 54 q 510 54 526 58 l 516 3 q 481 -5 446 -5 q 404 -5 386 14 q 368 32 368 69 l 371 101 l 368 101 q 324 42 276 16 q 227 -10 165 -10 q 100 -10 68 21 q 36 51 36 104 q 36 124 40 147 q 73 318 295 320 l 411 322 q 419 362 420 372 q 421 383 421 395 q 421 436 399 454 q 376 471 332 471 q 275 471 246 452 q 217 433 202 387 l 111 396 q 138 468 196 503 q 253 538 346 538 q 512 538 512 408 q 512 386 507 360 l 463 133 q 458 112 458 96 q 458 75 467 65 q 476 54 497 54 z m 200 57 q 247 57 287 79 q 328 102 355 139 q 382 177 390 217 l 399 261 l 306 259 q 240 258 203 241 q 167 225 148 193 q 129 160 129 123 q 129 92 147 75 q 165 57 200 57 z"},"L":{"x_min":0,"x_max":600,"ha":600,"o":"m 64 0 l 192 659 l 286 659 l 172 76 l 500 76 l 486 0 z"},"3":{"x_min":0,"x_max":600,"ha":600,"o":"m 250 -10 q 149 -10 97 33 q 45 76 45 159 q 45 172 45 177 l 138 185 l 138 175 q 138 63 264 63 q 314 63 352 81 q 390 99 411 133 q 432 167 432 204 q 432 247 391 272 q 351 297 284 297 l 234 297 l 249 374 l 297 374 q 344 374 385 390 q 425 407 449 438 q 473 468 473 513 q 473 553 446 575 q 419 597 363 597 q 305 597 263 567 q 222 537 205 483 l 118 490 q 145 574 214 621 q 283 669 378 669 q 470 669 518 633 q 566 598 566 533 q 566 461 517 407 q 468 354 388 338 l 388 336 q 451 329 487 294 q 523 259 523 208 q 523 169 503 126 q 483 83 448 52 q 412 22 362 6 q 312 -10 250 -10 z"},";":{"x_min":0,"x_max":600,"ha":600,"o":"m 265 382 l 293 528 l 408 528 l 380 382 z m 86 -177 l 231 146 l 361 146 l 146 -177 z"},"J":{"x_min":0,"x_max":600,"ha":600,"o":"m 233 -10 q 150 -10 109 33 q 68 75 68 167 l 68 171 l 162 186 l 162 177 q 162 122 185 94 q 207 66 248 66 q 350 66 377 203 l 451 583 l 299 583 l 313 659 l 558 659 l 470 205 q 451 105 389 48 q 327 -10 233 -10 z"},"V":{"x_min":0,"x_max":600,"ha":600,"o":"m 297 0 l 200 0 l 82 659 l 180 659 l 250 218 q 257 175 265 82 l 287 127 l 333 218 l 573 659 l 671 659 z"},"\"":{"x_min":0,"x_max":600,"ha":600,"o":"m 472 413 l 403 413 l 444 725 l 553 725 z m 253 413 l 184 413 l 225 725 l 334 725 z"},"7":{"x_min":0,"x_max":600,"ha":600,"o":"m 240 0 l 148 0 q 173 128 261 277 q 350 425 500 588 l 140 588 l 154 659 l 599 659 l 585 591 q 432 417 348 272 q 265 128 240 0 z"},"S":{"x_min":0,"x_max":600,"ha":600,"o":"m 245 -10 q 21 -10 20 165 l 113 183 q 114 121 151 92 q 188 63 261 63 q 339 63 385 93 q 431 123 442 179 l 444 201 q 444 229 429 247 q 415 265 388 277 q 362 290 286 309 q 215 329 188 342 q 161 355 145 371 q 128 387 120 408 q 111 428 111 455 q 111 497 129 538 q 146 580 181 609 q 216 639 267 654 q 317 669 379 669 q 483 669 531 632 q 578 596 583 511 l 488 495 q 487 549 457 574 q 427 599 365 599 q 228 599 207 495 l 205 475 q 205 452 216 437 q 228 422 247 412 q 267 402 292 395 q 318 388 347 380 q 434 357 468 338 q 501 320 520 292 q 539 265 539 222 q 539 175 519 131 q 499 86 461 55 q 423 24 369 7 q 315 -10 245 -10 z"},"}":{"x_min":0,"x_max":600,"ha":600,"o":"m -10 -208 l 3 -140 l 107 -140 q 151 -140 176 -118 q 200 -96 209 -44 l 243 125 q 252 175 291 211 q 329 248 381 259 l 381 260 q 340 271 316 300 q 292 329 292 367 l 294 393 l 328 562 q 332 582 332 598 q 332 630 314 643 q 297 657 262 657 l 158 657 l 171 725 l 300 725 q 355 725 387 695 q 419 665 419 612 q 419 594 416 577 l 382 405 l 379 381 q 379 341 409 318 q 438 294 494 292 l 481 225 q 417 223 376 193 q 335 164 325 112 l 292 -60 q 279 -125 231 -166 q 184 -208 119 -208 z"},"Z":{"x_min":0,"x_max":600,"ha":600,"o":"m 513 0 l -16 0 l -2 70 l 497 583 l 133 583 l 148 659 l 618 659 l 604 591 l 105 76 l 527 76 z"},"x":{"x_min":0,"x_max":600,"ha":600,"o":"m 404 0 l 289 217 l 89 0 l -5 0 l 250 271 l 106 528 l 203 528 l 310 323 l 495 528 l 593 528 l 350 272 l 502 0 z"},")":{"x_min":0,"x_max":600,"ha":600,"o":"m 166 -208 l 72 -208 q 177 -104 236 -10 q 296 85 326 194 q 355 303 355 398 q 355 483 330 563 q 304 644 253 725 l 347 725 q 399 642 423 564 q 447 487 447 406 q 447 311 417 198 q 388 86 330 -8 q 271 -103 166 -208 z"},"&":{"x_min":0,"x_max":600,"ha":600,"o":"m 471 -6 q 437 -6 405 11 q 374 27 354 57 q 266 -10 172 -10 q 87 -10 43 27 q 0 64 0 130 q 0 207 46 271 q 92 335 186 379 q 172 421 172 470 q 172 560 228 611 q 284 663 376 663 q 438 663 474 635 q 510 607 510 559 q 510 519 489 485 q 467 451 421 421 q 375 392 273 353 q 317 237 372 163 q 432 250 472 361 l 538 340 q 495 225 415 114 q 431 88 452 75 q 474 63 493 63 q 521 63 541 71 l 528 5 q 503 -6 471 -6 z m 434 545 q 434 572 415 588 q 396 604 363 604 q 311 604 278 572 q 245 540 245 479 q 245 443 257 406 q 339 438 364 452 q 389 466 404 481 q 420 496 427 512 q 434 528 434 545 z m 314 106 q 246 205 202 321 q 145 293 114 247 q 83 200 83 147 q 83 104 110 79 q 137 54 188 54 q 221 54 255 69 q 289 83 314 106 z"},"_":{"x_min":0,"x_max":600,"ha":600,"o":"m -75 -107 l -65 -61 l 539 -61 l 530 -107 z"},"v":{"x_min":0,"x_max":600,"ha":600,"o":"m 298 0 l 194 0 l 85 528 l 184 528 l 248 185 q 252 151 257 95 l 259 69 l 271 95 q 290 134 317 184 l 519 528 l 617 528 z"},"O":{"x_min":0,"x_max":600,"ha":600,"o":"m 246 -10 q 147 -10 99 47 q 50 104 50 210 q 50 288 74 381 q 98 475 141 539 q 184 604 243 636 q 303 669 379 669 q 476 669 526 615 q 576 561 576 453 q 576 377 552 284 q 528 191 484 124 q 440 58 380 24 q 319 -10 246 -10 z m 478 446 q 478 593 364 593 q 298 593 251 544 q 205 496 177 397 q 148 298 148 218 q 148 66 261 66 q 310 66 347 91 q 384 117 413 171 q 441 226 459 307 q 478 388 478 446 z"},"(":{"x_min":0,"x_max":600,"ha":600,"o":"m 243 117 q 243 35 266 -42 q 290 -120 343 -208 l 250 -208 q 199 -126 175 -47 q 151 31 151 114 q 151 211 180 321 q 209 430 267 525 q 326 619 432 725 l 524 725 q 421 623 362 529 q 303 435 273 325 q 243 216 243 117 z"},"C":{"x_min":0,"x_max":600,"ha":600,"o":"m 154 221 q 154 66 284 66 q 334 66 382 101 q 429 136 468 204 l 540 172 q 431 -10 269 -10 q 165 -10 111 48 q 57 106 57 218 q 57 299 82 392 q 107 484 151 545 q 194 606 255 638 q 317 669 396 669 q 559 669 591 505 l 503 474 q 495 532 462 562 q 430 593 381 593 q 329 593 289 568 q 249 543 220 493 q 192 442 173 363 q 154 283 154 221 z"},"W":{"x_min":0,"x_max":600,"ha":600,"o":"m 446 0 l 344 0 l 329 211 q 326 240 321 369 q 305 330 281 276 q 257 221 153 0 l 52 0 l 77 659 l 169 659 l 143 251 q 137 170 126 82 q 167 177 191 232 q 216 287 295 455 l 380 455 q 391 319 397 247 q 402 174 404 82 l 454 251 l 584 659 l 676 659 z"},"A":{"x_min":0,"x_max":600,"ha":600,"o":"m 454 0 l 422 187 l 147 187 l 44 0 l -51 0 l 326 659 l 432 659 l 548 0 z m 364 588 q 341 544 323 510 q 306 476 187 259 l 413 259 l 375 503 z"},"f":{"x_min":0,"x_max":600,"ha":600,"o":"m 321 459 l 232 0 l 144 0 l 233 459 l 105 459 l 119 528 l 247 528 l 249 541 q 269 640 323 682 q 378 725 489 725 q 523 725 563 721 q 603 718 624 714 l 610 644 q 596 646 551 649 q 506 652 485 652 q 434 652 406 641 q 378 629 361 604 q 344 578 334 528 l 574 528 l 561 459 z"},"Q":{"x_min":0,"x_max":600,"ha":600,"o":"m 312 -2 q 321 -63 348 -91 q 375 -119 425 -119 q 452 -119 482 -113 l 469 -178 q 421 -189 380 -189 q 307 -189 267 -147 q 228 -105 216 -8 q 133 0 91 57 q 50 113 50 210 q 50 288 74 381 q 98 475 141 539 q 184 604 243 636 q 303 669 379 669 q 476 669 526 615 q 576 561 576 453 q 576 388 557 304 q 538 221 503 156 q 469 92 420 52 q 372 12 312 -2 z m 478 446 q 478 593 364 593 q 298 593 251 544 q 205 496 177 397 q 148 298 148 218 q 148 66 261 66 q 310 66 347 91 q 384 117 413 171 q 441 226 459 307 q 478 388 478 446 z"},"w":{"x_min":0,"x_max":600,"ha":600,"o":"m 446 0 l 346 0 l 321 230 l 312 329 l 280 261 l 147 0 l 48 0 l 62 528 l 148 528 l 136 232 q 135 204 130 147 q 125 89 122 73 l 141 115 l 170 177 l 276 384 l 371 384 l 394 177 l 400 73 q 403 85 408 104 q 414 123 448 232 l 555 528 l 641 528 z"},"-":{"x_min":0,"x_max":600,"ha":600,"o":"m 156 227 l 171 305 l 444 305 l 429 227 z"},"E":{"x_min":0,"x_max":600,"ha":600,"o":"m 28 0 l 156 659 l 604 659 l 590 583 l 234 583 l 194 376 l 521 376 l 506 301 l 180 301 l 136 76 l 511 76 l 497 0 z"},"s":{"x_min":0,"x_max":600,"ha":600,"o":"m 250 -10 q 150 -10 104 21 q 57 52 54 121 l 134 136 q 136 93 163 74 q 190 56 263 56 q 337 56 375 83 q 412 109 412 154 q 412 178 392 194 q 372 210 325 223 l 269 238 q 204 255 178 270 q 152 284 137 305 q 123 326 123 355 q 123 391 139 426 q 155 461 186 486 q 216 511 260 524 q 304 537 357 537 q 443 537 489 504 q 534 471 534 410 l 453 400 l 453 402 q 453 437 427 454 q 402 471 345 471 q 277 471 243 448 q 209 424 209 383 q 209 360 226 346 q 244 332 286 321 q 394 292 422 280 q 450 267 467 251 q 484 234 491 217 q 499 200 499 179 q 499 128 468 83 q 437 38 380 14 q 324 -10 250 -10 z"},">":{"x_min":0,"x_max":600,"ha":600,"o":"m 57 75 l 57 150 l 476 329 l 57 508 l 57 583 l 542 379 l 542 279 z"},"l":{"x_min":0,"x_max":600,"ha":600,"o":"m 375 71 l 507 69 l 494 0 l 348 2 q 287 13 270 37 q 246 69 246 115 q 246 128 248 142 l 348 655 l 207 655 l 220 725 l 449 725 l 333 126 q 332 121 332 116 q 332 102 340 87 q 348 75 375 71 z m 378 69 z m 333 126 z m 349 0 z"},"8":{"x_min":0,"x_max":600,"ha":600,"o":"m 247 -10 q 151 -10 98 30 q 45 69 45 142 q 45 193 68 237 q 91 280 131 309 q 171 338 218 345 l 218 347 q 174 358 149 390 q 124 423 124 469 q 124 522 157 569 q 189 616 247 642 q 305 669 376 669 q 466 669 516 632 q 566 594 566 530 q 566 466 521 414 q 477 361 412 348 l 411 346 q 463 338 493 305 q 522 271 522 221 q 522 179 503 134 q 483 88 448 56 q 412 24 362 7 q 311 -10 247 -10 z m 474 521 q 474 604 364 604 q 317 604 282 586 q 248 569 230 536 q 213 504 213 468 q 213 425 241 403 q 268 380 321 380 q 374 380 410 401 q 445 421 459 457 q 474 493 474 521 z m 432 220 q 432 267 400 291 q 368 314 308 314 q 256 314 217 293 q 178 272 158 235 q 138 198 138 154 q 138 56 260 56 q 317 56 355 78 q 394 99 413 141 q 432 183 432 220 z"},"\\":{"x_min":0,"x_max":600,"ha":600,"o":"m 402 -10 l 146 725 l 232 725 l 491 -10 z"},"e":{"x_min":0,"x_max":600,"ha":600,"o":"m 154 246 q 147 212 147 187 q 147 124 178 90 q 208 56 264 56 q 313 56 356 78 q 398 99 418 137 l 491 115 q 458 55 394 22 q 331 -10 251 -10 q 156 -10 106 39 q 57 88 57 181 q 57 241 76 312 q 96 382 135 434 q 174 485 229 512 q 284 538 354 538 q 543 538 543 353 q 543 309 533 257 l 531 246 z m 343 473 q 278 473 232 431 q 186 388 168 313 l 453 313 l 455 348 q 455 473 343 473 z"},"b":{"x_min":0,"x_max":600,"ha":600,"o":"m 288 -10 q 168 -10 142 80 l 141 80 q 137 59 130 31 q 123 3 121 0 l 36 0 q 39 7 46 40 q 53 73 60 109 l 180 725 l 268 725 l 228 518 l 211 441 l 213 441 q 276 539 395 539 q 544 539 544 372 q 544 326 533 267 q 506 128 443 59 q 380 -10 288 -10 z m 452 359 q 452 418 429 445 q 406 471 358 471 q 296 471 255 433 q 214 394 191 315 q 167 235 167 171 q 167 111 194 83 q 220 55 276 55 q 334 55 372 95 q 409 135 431 216 q 452 297 452 359 z"},"%":{"x_min":0,"x_max":600,"ha":600,"o":"m 57 0 l -14 0 l 569 661 l 641 661 z m 220 665 q 332 665 332 557 q 332 519 321 475 q 309 431 286 399 q 262 367 230 350 q 197 334 154 334 q 40 334 40 445 q 40 482 52 528 q 64 573 87 604 q 110 635 143 650 q 175 665 220 665 z m 261 554 q 261 583 249 598 q 236 612 209 612 q 176 612 156 592 q 136 571 124 527 q 112 482 112 450 q 112 417 126 403 q 140 389 166 389 q 198 389 218 412 q 238 435 250 478 q 261 521 261 554 z m 474 325 q 586 325 586 217 q 586 161 565 106 q 544 52 505 23 q 465 -6 408 -6 q 294 -6 294 105 q 294 143 306 187 q 318 232 341 263 q 364 294 396 310 q 429 325 474 325 z m 515 213 q 515 247 501 259 q 488 272 463 272 q 430 272 410 251 q 390 231 378 187 q 366 143 366 110 q 366 77 380 63 q 394 49 420 49 q 452 49 472 72 q 493 95 504 137 q 515 180 515 213 z"},"m":{"x_min":0,"x_max":600,"ha":600,"o":"m 208 0 l 273 335 q 284 389 284 418 q 284 447 274 459 q 264 470 244 470 q 213 470 185 424 q 156 378 140 296 l 83 0 l 0 0 l 81 416 q 84 432 87 450 q 90 469 93 485 q 96 501 98 513 q 100 525 100 528 l 172 528 l 163 466 l 159 443 l 160 443 q 188 495 217 517 q 247 538 284 538 q 327 538 343 515 q 360 492 360 445 l 360 442 l 361 442 q 391 494 422 516 q 454 538 495 538 q 538 538 557 516 q 577 493 577 444 q 577 408 566 352 l 498 0 l 416 0 l 480 335 q 491 389 491 418 q 491 447 481 459 q 472 470 451 470 q 419 470 392 429 q 365 388 350 306 l 290 0 z"},"#":{"x_min":0,"x_max":600,"ha":600,"o":"m 482 407 l 419 252 l 546 252 l 536 199 l 397 199 l 316 0 l 262 0 l 343 199 l 166 199 l 86 0 l 32 0 l 112 199 l 14 199 l 24 252 l 134 252 l 197 407 l 79 407 l 89 459 l 218 459 l 300 659 l 354 659 l 272 459 l 449 459 l 531 659 l 584 659 l 503 459 l 606 459 l 596 407 z m 252 407 l 188 252 l 365 252 l 428 407 z"},",":{"x_min":0,"x_max":600,"ha":600,"o":"m 41 -177 l 186 146 l 315 146 l 101 -177 z"},"n":{"x_min":0,"x_max":600,"ha":600,"o":"m 373 0 l 438 339 q 444 368 444 387 q 444 430 423 450 q 401 470 356 470 q 296 470 249 426 q 202 382 187 306 l 127 0 l 39 0 l 120 416 q 123 432 126 450 q 129 469 132 485 q 135 501 137 513 q 139 525 139 528 l 222 528 q 222 525 218 495 q 213 465 208 438 l 209 438 q 243 484 288 511 q 333 538 398 538 q 536 538 536 414 q 536 386 529 352 l 461 0 z"},"h":{"x_min":0,"x_max":600,"ha":600,"o":"m 180 725 l 268 725 l 231 534 q 226 507 208 438 l 209 438 q 242 484 287 511 q 332 538 395 538 q 536 538 536 412 q 536 384 529 352 l 461 0 l 373 0 l 438 339 q 444 368 444 387 q 444 430 423 450 q 401 470 356 470 q 296 470 249 426 q 202 382 187 306 l 127 0 l 39 0 z"},"z":{"x_min":0,"x_max":600,"ha":600,"o":"m 21 0 l 34 67 l 442 460 l 129 460 l 143 528 l 555 528 l 542 461 l 132 68 l 483 68 l 470 0 z"},"B":{"x_min":0,"x_max":600,"ha":600,"o":"m 258 0 l 28 0 l 156 659 l 357 659 q 572 659 572 533 q 572 490 552 450 q 532 410 494 384 q 457 357 408 347 q 479 339 515 304 q 551 270 551 218 q 551 178 532 136 q 513 95 474 63 q 435 32 379 16 q 324 0 258 0 z m 475 510 q 475 549 442 567 q 409 584 343 584 l 234 584 l 195 381 l 305 381 q 451 381 472 487 z m 457 218 q 457 308 304 308 l 181 308 l 136 75 l 266 75 q 351 75 397 104 q 443 134 455 194 z"},"K":{"x_min":0,"x_max":600,"ha":600,"o":"m 438 0 l 263 313 l 166 229 l 121 0 l 28 0 l 156 659 l 249 659 l 185 330 l 528 659 l 638 659 l 338 379 l 548 0 z"},"R":{"x_min":0,"x_max":600,"ha":600,"o":"m 416 0 l 292 281 l 176 281 l 121 0 l 28 0 l 156 659 l 391 659 q 493 659 543 622 q 593 584 593 518 q 593 467 568 417 q 543 368 495 335 q 446 301 385 292 l 523 0 z m 497 501 q 497 584 367 584 l 234 584 l 190 354 l 327 354 q 381 354 420 374 q 459 393 478 428 q 497 464 497 501 z"},"T":{"x_min":0,"x_max":600,"ha":600,"o":"m 408 583 l 295 0 l 202 0 l 315 583 l 99 583 l 114 659 l 639 659 l 625 583 z"},"P":{"x_min":0,"x_max":600,"ha":600,"o":"m 307 251 l 170 251 l 121 0 l 28 0 l 156 659 l 380 659 q 482 659 536 619 q 589 579 589 505 q 589 439 553 379 q 517 319 452 285 q 387 251 307 251 z m 494 489 q 494 584 354 584 l 234 584 l 184 325 l 308 325 q 364 325 406 346 q 449 368 471 407 q 494 446 494 489 z"},"|":{"x_min":0,"x_max":600,"ha":600,"o":"m 259 -208 l 259 725 l 340 725 l 340 -208 z"},"t":{"x_min":0,"x_max":600,"ha":600,"o":"m 131 459 l 144 528 l 227 528 l 282 666 l 341 666 l 314 528 l 525 528 l 512 459 l 301 459 l 239 141 l 236 119 q 236 91 255 78 q 273 65 313 65 q 378 65 461 82 l 448 15 q 362 -8 280 -8 q 212 -8 179 16 q 145 41 145 92 q 145 114 149 131 l 213 459 z"},"M":{"x_min":0,"x_max":600,"ha":600,"o":"m 406 0 l 489 424 q 501 485 520 571 l 493 518 l 446 429 l 325 215 l 258 215 l 218 429 q 211 464 199 571 l 172 424 l 90 0 l 12 0 l 140 659 l 255 659 l 299 420 q 305 392 311 307 l 332 351 l 367 419 l 503 659 l 613 659 l 485 0 z"},"g":{"x_min":0,"x_max":600,"ha":600,"o":"m 209 -207 q 126 -207 83 -173 q 41 -140 39 -77 l 131 -64 q 132 -101 156 -121 q 180 -141 225 -141 q 347 -141 375 13 l 394 108 l 393 108 q 324 6 206 6 q 129 6 94 44 q 59 83 59 160 q 59 221 78 302 q 98 384 130 435 q 162 485 209 511 q 255 537 318 537 q 374 537 409 511 q 445 485 458 438 l 459 438 q 462 456 471 490 q 480 524 482 528 l 566 528 l 557 488 l 542 419 l 463 16 q 442 -95 379 -151 q 317 -207 209 -207 z m 433 340 q 433 402 406 437 q 378 471 328 471 q 284 471 253 452 q 222 433 201 393 q 179 352 165 285 q 150 218 150 173 q 150 120 173 95 q 196 71 248 71 q 287 71 322 92 q 356 113 381 152 q 407 191 420 244 q 433 297 433 340 z"},"j":{"x_min":0,"x_max":600,"ha":600,"o":"m 106 -208 q 67 -208 29 -201 q -9 -195 -30 -187 l -17 -118 q 53 -135 113 -135 q 175 -135 215 -103 q 255 -71 267 -12 l 358 459 l 160 459 l 173 528 l 459 528 l 354 -14 q 337 -104 272 -156 q 207 -208 106 -208 z m 382 631 l 400 725 l 498 725 l 479 631 z"},"i":{"x_min":0,"x_max":600,"ha":600,"o":"m 326 69 l 512 69 l 498 0 l 19 0 l 32 69 l 238 69 l 314 459 l 158 459 l 171 528 l 415 528 z m 337 631 l 355 725 l 453 725 l 435 631 z"},"y":{"x_min":0,"x_max":600,"ha":600,"o":"m 51 -208 q 16 -208 -8 -202 l 4 -136 q 22 -139 45 -139 q 83 -139 123 -110 q 163 -82 198 -19 l 211 5 l 83 528 l 177 528 l 246 215 q 251 191 260 145 q 269 99 269 91 q 274 102 300 145 l 525 528 l 618 528 l 293 0 q 225 -118 170 -163 q 115 -208 51 -208 z"},"@":{"x_min":0,"x_max":600,"ha":600,"o":"m 390 51 q 333 51 333 104 q 333 116 335 127 l 340 146 l 337 146 q 313 104 277 77 q 241 51 204 51 q 164 51 143 80 q 123 109 123 164 q 123 246 160 338 q 197 430 253 484 q 310 538 368 538 q 438 538 441 453 l 443 453 l 474 527 l 530 527 l 434 279 q 404 201 395 171 q 386 141 386 124 q 386 101 403 101 q 437 101 470 157 q 504 213 528 306 q 552 399 552 469 q 552 562 513 615 q 475 668 406 668 q 341 668 282 627 q 223 586 175 508 q 127 431 98 325 q 68 219 68 133 q 68 32 110 -24 q 151 -81 228 -81 q 272 -81 317 -64 q 362 -48 423 -3 l 450 -46 q 381 -96 325 -117 q 269 -138 212 -138 q 113 -138 59 -69 q 5 0 5 122 q 5 217 39 335 q 73 454 130 542 q 187 629 260 677 q 334 725 417 725 q 511 725 562 660 q 613 596 613 482 q 613 392 580 282 q 547 173 497 112 q 446 51 390 51 z m 406 424 q 406 456 393 472 q 381 488 359 488 q 322 488 283 441 q 245 395 217 313 q 188 231 188 166 q 188 103 226 103 q 251 103 278 127 q 306 151 331 196 q 356 240 381 313 q 406 385 406 424 z"},".":{"x_min":0,"x_max":600,"ha":600,"o":"m 191 0 l 219 146 l 334 146 l 306 0 z"},"p":{"x_min":0,"x_max":600,"ha":600,"o":"m 288 -10 q 167 -10 144 80 l 141 80 q 141 75 137 53 q 133 30 87 -208 l -1 -208 l 121 419 q 134 485 139 528 l 224 528 q 224 519 220 488 q 215 457 212 441 l 214 441 q 249 493 291 516 q 334 539 395 539 q 545 539 545 375 q 545 329 533 267 q 479 -10 288 -10 z m 453 363 q 453 416 431 443 q 410 471 358 471 q 311 471 278 450 q 245 430 221 386 q 197 343 182 279 q 167 215 167 171 q 167 112 194 83 q 220 55 276 55 q 333 55 371 93 q 408 131 431 217 q 453 302 453 363 z"},"X":{"x_min":0,"x_max":600,"ha":600,"o":"m 328 408 l 539 659 l 639 659 l 366 344 l 531 0 l 431 0 l 303 280 l 66 0 l -34 0 l 266 344 l 114 659 l 214 659 z"},"*":{"x_min":0,"x_max":600,"ha":600,"o":"m 389 580 l 528 630 l 537 566 l 393 530 l 459 408 l 395 373 l 346 499 l 245 374 l 194 409 l 310 530 l 180 566 l 214 631 l 335 579 l 357 724 l 423 724 z"},"Y":{"x_min":0,"x_max":600,"ha":600,"o":"m 294 0 l 203 0 l 258 285 l 94 659 l 194 659 l 319 360 l 559 659 l 659 659 l 350 285 z"},"c":{"x_min":0,"x_max":600,"ha":600,"o":"m 362 538 q 450 538 500 496 q 549 454 549 380 l 454 374 l 454 376 q 454 418 428 444 q 402 469 345 469 q 279 469 237 435 q 194 400 171 325 q 147 249 147 182 q 147 118 176 88 q 206 58 264 58 q 317 58 357 84 q 396 110 415 163 l 507 157 q 491 110 455 72 q 418 34 366 12 q 314 -10 255 -10 q 156 -10 105 39 q 55 87 55 180 q 55 242 75 312 q 95 382 135 434 q 176 486 233 512 q 290 538 362 538 z"},"!":{"x_min":0,"x_max":600,"ha":600,"o":"m 323 194 l 250 194 l 329 658 l 425 658 z m 200 0 l 219 98 l 314 98 l 295 0 z"},"/":{"x_min":0,"x_max":600,"ha":600,"o":"m 2 -10 l 546 725 l 633 725 l 91 -10 z"},"[":{"x_min":0,"x_max":600,"ha":600,"o":"m 108 -208 l 290 725 l 557 725 l 543 657 l 364 657 l 209 -140 l 389 -140 l 375 -208 z"},"6":{"x_min":0,"x_max":600,"ha":600,"o":"m 260 -10 q 167 -10 120 44 q 72 99 72 202 q 72 279 97 373 q 123 467 166 533 q 209 600 269 634 q 328 669 398 669 q 554 669 568 529 l 480 514 q 476 558 449 578 q 423 598 384 598 q 309 598 254 529 q 199 460 176 339 q 208 384 256 407 q 304 430 360 430 q 441 430 486 387 q 532 344 532 269 q 532 219 512 165 q 492 111 456 72 q 419 33 370 12 q 320 -10 260 -10 z m 440 254 q 440 306 410 334 q 380 362 326 362 q 283 362 243 340 q 204 318 182 281 q 160 245 160 191 q 160 131 190 96 q 220 61 271 61 q 318 61 357 86 q 396 111 418 157 q 440 203 440 254 z"},"r":{"x_min":0,"x_max":600,"ha":600,"o":"m 546 448 q 494 458 444 458 q 366 458 306 398 q 246 339 229 248 l 180 0 l 92 0 l 159 342 q 171 409 171 483 l 169 528 l 253 528 q 256 504 256 466 q 256 434 253 406 l 255 406 q 291 461 319 487 q 347 512 382 525 q 417 538 463 538 q 515 538 562 530 z"},"2":{"x_min":0,"x_max":600,"ha":600,"o":"m 19 0 l 30 57 q 59 101 106 147 q 154 192 217 237 q 279 282 287 288 q 368 346 405 380 q 441 415 458 446 q 474 478 474 511 q 474 552 446 574 q 417 597 363 597 q 310 597 269 568 q 228 539 209 480 l 122 489 q 148 573 215 621 q 283 669 377 669 q 467 669 517 633 q 566 598 566 529 q 566 494 555 461 q 543 428 516 393 q 489 357 447 322 q 405 286 302 215 q 238 171 198 136 q 158 102 139 71 l 492 71 l 478 0 z"},"{":{"x_min":0,"x_max":600,"ha":600,"o":"m 297 -208 q 243 -208 211 -177 q 179 -147 179 -94 q 179 -76 182 -60 l 216 112 l 218 136 q 218 177 188 200 q 158 223 104 225 l 116 292 q 181 294 222 324 q 263 354 272 405 l 306 577 q 320 645 367 685 q 414 725 478 725 l 607 725 l 594 657 l 490 657 q 445 657 421 635 q 398 612 389 562 l 355 393 q 346 345 308 309 q 270 272 217 260 l 217 259 q 257 249 281 220 q 306 191 306 151 q 306 136 304 125 l 271 -44 q 267 -65 267 -81 q 267 -112 283 -126 q 300 -140 335 -140 l 439 -140 l 426 -208 z"},"9":{"x_min":0,"x_max":600,"ha":600,"o":"m 229 -10 q 147 -10 106 24 q 64 59 58 134 l 145 147 q 154 61 244 61 q 317 61 373 128 q 429 195 454 317 q 426 274 374 247 q 322 220 265 220 q 188 220 143 265 q 98 310 98 389 q 98 441 118 495 q 138 548 175 587 q 212 626 264 648 q 315 669 376 669 q 560 669 560 466 q 560 388 535 294 q 511 199 467 130 q 422 61 362 25 q 301 -10 229 -10 z m 471 469 q 471 528 441 563 q 412 598 360 598 q 312 598 273 572 q 234 547 211 500 q 189 453 189 403 q 189 349 218 319 q 248 290 299 290 q 343 290 384 313 q 426 336 448 374 q 471 411 471 469 z"}," ":{"x_min":0,"x_max":600,"ha":600,"o":""},"I":{"x_min":0,"x_max":600,"ha":600,"o":"m 175 659 l 577 659 l 562 583 l 408 583 l 310 76 l 464 76 l 449 0 l 47 0 l 62 76 l 216 76 l 315 583 l 161 583 z"},"H":{"x_min":0,"x_max":600,"ha":600,"o":"m 376 0 l 435 304 l 180 304 l 121 0 l 28 0 l 156 659 l 249 659 l 195 382 l 450 382 l 504 659 l 597 659 l 469 0 z"},"4":{"x_min":0,"x_max":600,"ha":600,"o":"m 437 156 l 406 0 l 318 0 l 349 156 l 29 156 l 42 224 l 437 659 l 534 659 l 450 225 l 542 225 l 528 156 z m 428 563 l 118 225 l 362 225 z"},"~":{"x_min":0,"x_max":600,"ha":600,"o":"m 207 394 q 246 394 282 383 q 317 372 351 359 q 409 337 442 337 q 506 337 570 382 l 556 309 q 520 287 490 279 q 461 270 421 270 q 387 270 354 281 q 321 292 288 304 q 229 326 186 326 q 153 326 124 316 q 94 307 57 283 l 70 353 q 132 394 207 394 z"},"D":{"x_min":0,"x_max":600,"ha":600,"o":"m 208 0 l 28 0 l 156 659 l 308 659 q 574 659 574 435 q 574 357 547 271 q 521 185 473 124 q 425 63 358 31 q 292 0 208 0 z m 479 422 q 479 507 433 545 q 387 583 293 583 l 234 583 l 136 76 l 215 76 q 277 76 325 100 q 373 124 406 171 q 440 219 459 292 q 479 364 479 422 z"},"^":{"x_min":0,"x_max":600,"ha":600,"o":"m 450 216 l 365 608 l 130 216 l 56 216 l 326 659 l 425 659 l 525 216 z"},"0":{"x_min":0,"x_max":600,"ha":600,"o":"m 245 -10 q 152 -10 105 44 q 59 97 59 201 q 59 275 83 374 q 106 472 147 538 q 188 605 244 637 q 301 669 380 669 q 474 669 520 618 q 566 566 566 463 q 566 387 543 291 q 520 194 478 126 q 435 58 377 24 q 319 -10 245 -10 z m 478 462 q 478 533 451 565 q 424 598 366 598 q 293 598 248 548 q 203 499 175 389 q 147 280 147 203 q 147 130 175 96 q 203 62 260 62 q 312 62 349 90 q 387 118 414 174 q 441 230 459 318 q 478 406 478 462 z m 243 271 l 267 393 l 382 393 l 358 271 z"},"F":{"x_min":0,"x_max":600,"ha":600,"o":"m 250 583 l 203 341 l 533 341 l 518 264 l 188 264 l 137 0 l 43 0 l 171 659 l 606 659 l 592 583 z"},"`":{"x_min":0,"x_max":600,"ha":600,"o":"m 405 586 l 281 699 l 284 713 l 380 713 l 468 596 l 466 586 z"},"k":{"x_min":0,"x_max":600,"ha":600,"o":"m 395 0 l 264 244 l 190 196 l 152 0 l 64 0 l 205 725 l 292 725 l 205 272 l 486 528 l 589 528 l 331 301 l 498 0 z"},"u":{"x_min":0,"x_max":600,"ha":600,"o":"m 229 528 l 165 193 q 158 158 158 133 q 158 92 178 75 q 199 58 248 58 q 312 58 356 102 q 401 146 416 222 l 475 528 l 563 528 l 483 113 q 479 96 476 78 q 473 60 470 43 q 468 27 466 15 q 464 3 464 0 l 381 0 q 381 5 386 38 q 391 70 395 90 l 393 90 q 353 36 307 13 q 262 -10 205 -10 q 133 -10 100 19 q 66 47 66 109 q 66 138 73 176 l 142 528 z"},"]":{"x_min":0,"x_max":600,"ha":600,"o":"m 40 -208 l 53 -140 l 232 -140 l 387 657 l 208 657 l 221 725 l 488 725 l 307 -208 z"},"U":{"x_min":0,"x_max":600,"ha":600,"o":"m 242 -10 q 144 -10 99 28 q 54 66 54 147 q 54 185 63 230 l 146 659 l 239 659 l 159 243 q 149 193 149 160 q 149 110 174 88 q 198 66 256 66 q 335 66 374 106 q 414 146 434 250 l 514 659 l 606 659 l 525 239 q 500 109 433 50 q 366 -10 242 -10 z"},"o":{"x_min":0,"x_max":600,"ha":600,"o":"m 244 -10 q 152 -10 104 38 q 55 86 55 179 q 55 218 63 265 q 90 401 165 469 q 240 538 354 538 q 451 538 498 493 q 545 448 545 357 q 545 292 525 219 q 504 146 465 94 q 425 42 369 16 q 313 -10 244 -10 z m 453 352 q 453 413 427 443 q 400 473 342 473 q 278 473 236 436 q 193 398 170 323 q 147 249 147 182 q 147 55 256 55 q 305 55 340 75 q 375 96 400 138 q 425 181 439 243 q 453 306 453 352 z"},"N":{"x_min":0,"x_max":600,"ha":600,"o":"m 357 0 l 210 552 q 203 473 194 428 l 111 0 l 28 0 l 156 659 l 264 659 l 414 103 q 420 179 431 237 l 513 659 l 597 659 l 469 0 z"},"+":{"x_min":0,"x_max":600,"ha":600,"o":"m 335 297 l 335 88 l 264 88 l 264 297 l 57 297 l 57 368 l 264 368 l 264 577 l 335 577 l 335 368 l 542 368 l 542 297 z"},"G":{"x_min":0,"x_max":600,"ha":600,"o":"m 259 -10 q 162 -10 109 49 q 57 108 57 220 q 57 299 83 393 q 108 487 151 547 q 193 608 253 638 q 313 669 392 669 q 560 669 586 507 l 497 480 q 479 593 378 593 q 326 593 287 569 q 249 544 221 496 q 193 447 174 365 q 154 284 154 222 q 154 66 281 66 q 314 66 352 76 q 389 86 416 102 l 447 266 l 304 266 l 319 344 l 553 344 l 499 65 q 375 -10 259 -10 z"},"q":{"x_min":0,"x_max":600,"ha":600,"o":"m 311 536 q 375 536 408 514 q 441 492 456 446 l 457 446 q 463 478 470 502 q 477 526 479 529 l 564 529 q 561 518 553 482 q 545 446 418 -208 l 330 -208 q 382 61 389 89 l 388 89 q 351 35 308 11 q 265 -13 205 -13 q 128 -13 91 28 q 55 69 55 152 q 55 199 66 260 q 120 536 311 536 z m 432 354 q 432 414 406 443 q 380 471 323 471 q 266 471 229 433 q 191 394 169 312 q 147 229 147 167 q 147 111 170 83 q 192 55 241 55 q 303 55 344 94 q 385 133 408 211 q 432 290 432 354 z"},"d":{"x_min":0,"x_max":600,"ha":600,"o":"m 386 85 q 353 34 308 10 q 264 -13 205 -13 q 128 -13 91 28 q 55 69 55 152 q 55 199 66 260 q 121 536 312 536 q 371 536 406 515 q 442 494 457 446 l 458 446 l 468 505 l 511 725 l 599 725 l 479 109 q 463 21 461 0 l 377 0 l 377 2 q 377 23 389 85 z m 147 165 q 147 107 170 81 q 192 55 241 55 q 303 55 344 94 q 385 132 409 213 q 433 294 433 355 q 433 415 406 443 q 380 471 323 471 q 281 471 250 451 q 220 432 198 390 q 177 348 162 280 q 147 212 147 165 z"},"1":{"x_min":0,"x_max":600,"ha":600,"o":"m 25 0 l 39 71 l 253 71 l 351 569 q 325 531 252 503 q 179 475 113 475 l 127 547 q 201 547 271 579 q 341 610 375 659 l 456 659 l 342 71 l 514 71 l 500 0 z"},"5":{"x_min":0,"x_max":600,"ha":600,"o":"m 239 -10 q 143 -10 92 33 q 41 75 41 154 l 132 164 q 140 62 255 62 q 307 62 349 86 q 391 110 415 156 q 439 201 439 243 q 439 293 406 323 q 372 353 313 353 q 278 353 245 342 q 213 331 176 303 l 90 303 l 182 659 l 573 659 l 560 588 l 250 588 l 195 380 q 261 424 346 424 q 432 424 482 380 q 532 336 532 261 q 532 192 495 127 q 458 61 390 26 q 323 -10 239 -10 z"}}}
